<svg width="62" height="62" viewBox="0 0 62 62" fill="none" xmlns="http://www.w3.org/2000/svg">
<g clip-path="url(#clip0)">
<path d="M36.9989 29.5524C36.5312 29.6293 36.2975 30.1033 36.4544 30.8111C36.6113 31.5189 37.0373 31.8296 37.4729 31.7495C37.9084 31.6695 38.1808 31.1603 38.0238 30.4525C37.8669 29.7446 37.428 29.4371 36.9989 29.5524Z" fill="#A71920"/>
<path d="M37.5561 24.7385C36.7554 24.5816 35.2117 24.6136 34.4687 26.8748C34.3386 27.2778 34.2443 27.6915 34.1868 28.1111C34.1868 28.1655 34.2604 28.2616 34.3597 28.1271C34.7892 27.5525 35.2682 27.0166 35.7914 26.5257C36.3639 26.0133 36.979 25.5505 37.6298 25.1421C37.6671 25.1186 37.6966 25.0844 37.7144 25.044C37.7321 25.0036 37.7374 24.9588 37.7295 24.9154C37.7216 24.872 37.7008 24.8319 37.6699 24.8004C37.639 24.7688 37.5994 24.7473 37.5561 24.7385Z" fill="#A71920"/>
<path d="M29.3088 37.7419L29.3408 37.9117C29.3667 38.0431 29.4373 38.1616 29.5407 38.2468C29.644 38.3321 29.7737 38.3789 29.9077 38.3793C29.9439 38.3839 29.9805 38.3839 30.0166 38.3793L30.702 38.248C30.7765 38.2338 30.8474 38.205 30.9108 38.1634C30.9741 38.1217 31.0287 38.0679 31.0712 38.0051C31.1138 37.9423 31.1435 37.8718 31.1587 37.7975C31.174 37.7232 31.1744 37.6467 31.16 37.5722L31.1248 37.4025C31.1111 37.3279 31.0825 37.2567 31.0407 37.1935C30.9988 37.1302 30.9447 37.076 30.8814 37.0341C30.7546 36.9487 30.5993 36.9164 30.449 36.9444L29.7636 37.079C29.6892 37.0932 29.6184 37.1219 29.5551 37.1637C29.4919 37.2054 29.4376 37.2592 29.3953 37.322C29.353 37.3848 29.3236 37.4555 29.3088 37.5298C29.2939 37.604 29.2939 37.6805 29.3088 37.7547V37.7419Z" fill="#A71920"/>
<path d="M31 1.65503e-07C24.8688 1.65503e-07 18.8752 1.8181 13.7773 5.22443C8.67938 8.63075 4.7061 13.4723 2.35978 19.1368C0.0134672 24.8013 -0.600484 31.0344 0.595658 37.0478C1.7918 43.0612 4.74424 48.5848 9.07966 52.9202C13.4151 57.2557 18.9388 60.2082 24.9522 61.4043C30.9656 62.6005 37.1987 61.9865 42.8632 59.6402C48.5277 57.2939 53.3692 53.3206 56.7756 48.2227C60.1819 43.1248 62 37.1312 62 31C62.0004 26.9289 61.1989 22.8976 59.6411 19.1363C58.0834 15.375 55.7999 11.9574 52.9212 9.07874C50.0425 6.20005 46.625 3.91661 42.8637 2.35887C39.1024 0.80112 35.0711 -0.000420511 31 1.65503e-07ZM31 59.079C25.4465 59.079 20.0177 57.4322 15.4001 54.3468C10.7826 51.2614 7.18364 46.8761 5.0584 41.7454C2.93317 36.6146 2.37708 30.9688 3.46051 25.522C4.54395 20.0752 7.21822 15.072 11.1451 11.1451C15.0721 7.21817 20.0753 4.54393 25.5221 3.4605C30.9689 2.37706 36.6146 2.93311 41.7453 5.05834C46.8761 7.18358 51.2615 10.7825 54.3469 15.4001C57.4322 20.0176 59.0791 25.4465 59.0791 31C59.0706 38.4444 56.1095 45.5815 50.8455 50.8455C45.5815 56.1095 38.4444 59.0705 31 59.079Z" fill="#A71920"/>
<path d="M30.9998 5.67544C26.258 5.66842 21.6096 6.99406 17.5848 9.50114C13.5599 12.0082 10.3205 15.5958 8.23602 19.8549C6.15154 24.114 5.30583 28.8732 5.79536 33.5897C6.28489 38.3062 8.08996 42.7903 11.0047 46.5305C14.72 45.717 18.922 45.765 23.4957 46.6714C23.5404 46.6793 23.5804 46.7038 23.6078 46.7401C23.6351 46.7763 23.6477 46.8217 23.643 46.8668C23.6414 46.9117 23.6232 46.9543 23.5918 46.9863C23.5603 47.0183 23.518 47.0373 23.4732 47.0397C20.4209 47.2287 17.231 48.1447 13.9833 49.7621C16.5124 52.0562 19.4803 53.8137 22.7078 54.9283C23.8832 48.7885 28.8188 49.2721 35.0514 49.8871C39.3208 50.3098 44.1249 50.7774 48.6121 49.176C52.2324 45.668 54.7231 41.1589 55.7651 36.2266C56.807 31.2943 56.3528 26.1633 54.4606 21.4907C52.5685 16.8181 49.3245 12.8167 45.1443 9.99916C40.964 7.18157 36.0378 5.67606 30.9966 5.67544H30.9998ZM41.188 33.431L41.0663 33.4598L41.0855 33.5847C41.1912 34.2829 41.2777 34.9043 41.3481 35.4808C39.0894 35.7716 36.8 35.7252 34.555 35.343L34.2347 35.2854L34.4012 35.5513C36.2525 38.5299 39.8684 38.4338 41.5083 38.2C41.4698 41.8704 39.9325 43.76 36.5375 44.3237C34.43 44.676 32.7358 44.4166 28.7867 42.0177C28.7311 41.9816 28.6637 41.9684 28.5986 41.981C28.5335 41.9935 28.4758 42.0308 28.4376 42.085C28.4005 42.1417 28.3866 42.2103 28.3985 42.277C28.4104 42.3437 28.4473 42.4033 28.5016 42.4437C29.055 42.8744 29.539 43.3875 29.9365 43.9651C30.7725 45.0508 31.7205 46.2838 34.0009 46.8732C34.1824 46.9204 34.3417 47.0294 34.4516 47.1813C34.5615 47.3333 34.615 47.5188 34.603 47.7059L34.555 48.3465C34.555 48.5643 34.5293 48.686 34.5261 48.7597C31.1984 47.7251 27.9124 47.8308 25.2124 49.0511C25.5039 47.4753 25.6191 46.8603 25.6608 46.6394C25.6608 46.6394 25.6608 46.617 25.6608 46.6074C25.6622 46.5967 25.6622 46.5859 25.6608 46.5753L25.8017 45.8099C25.8296 45.6675 25.8906 45.5336 25.9796 45.4191C26.0685 45.3045 26.1831 45.2124 26.3141 45.1501C26.5548 45.0279 26.7524 44.8352 26.8806 44.5976C27.0088 44.3601 27.0615 44.0892 27.0316 43.8209C26.9438 42.7219 26.5839 41.6618 25.9842 40.7366C26.3045 40.4355 26.9451 39.811 26.9451 37.726C26.946 37.3876 27.0226 37.0537 27.1695 36.7489C27.3164 36.444 27.5297 36.176 27.7938 35.9644C27.9571 35.8299 28.0981 35.6858 28.0276 35.5384C27.9571 35.3911 27.7234 35.4199 27.6113 35.4423C27.2814 35.5104 26.939 35.4867 26.6217 35.3738C26.3043 35.2608 26.024 35.063 25.8113 34.8018C25.162 33.9856 24.8318 32.961 24.8825 31.9193L26.9835 31.4164L28.3319 36.2206C28.3511 36.3007 28.1877 36.5409 28.1077 36.6402C28.066 36.6946 28.0309 36.7459 28.0052 36.7843C27.8065 37.1624 27.7099 37.586 27.7251 38.0129C27.7402 38.4398 27.8666 38.8554 28.0917 39.2185C28.2352 39.4609 28.4478 39.6551 28.7023 39.7761C28.9567 39.897 29.2415 39.9393 29.5202 39.8975C31.5892 39.6157 32.5564 38.8181 32.4027 37.5081C32.3862 37.2105 32.3034 36.9204 32.1604 36.6589C32.0175 36.3973 31.8179 36.171 31.5763 35.9964C31.414 35.8943 31.2988 35.7319 31.2561 35.5449L31.0319 33.4086L31.7653 33.2549L31.7204 33.1107C31.4541 32.2252 31.2845 31.3135 31.2145 30.3915L40.1439 28.3289C40.3616 29.9816 44.3556 30.747 45.2972 30.8912C44.6502 32.089 42.7381 33.0434 41.188 33.431ZM45.7231 25.1037C45.6797 25.1776 45.622 25.242 45.5532 25.2932C45.4844 25.3444 45.406 25.3812 45.3228 25.4016C44.7014 25.5425 36.3869 27.7364 29.3888 29.5844L29.2671 29.6197L30.3496 35.6442C30.3848 35.8363 30.4634 36.0178 30.5794 36.1749C30.6954 36.332 30.8458 36.4604 31.0191 36.5505C31.1469 36.6079 31.2598 36.6942 31.3487 36.8025C31.4376 36.9109 31.5002 37.0385 31.5315 37.1751L31.6084 37.5594C31.7109 38.2192 31.1023 38.6964 30.4457 38.8406C29.7892 38.9847 29.107 38.7925 28.9404 38.1167L28.8604 37.6939C28.8313 37.4929 28.8696 37.2879 28.9693 37.111L29.0173 37.0277C29.2466 36.7175 29.3599 36.3367 29.3376 35.9516C29.0974 34.805 27.9796 30.1481 27.97 30.1001L27.938 29.9656L27.8034 29.9976C27.8034 29.9976 19.9662 31.82 18.8036 32.0858C14.1819 33.1427 12.241 35.1413 11.9687 36.6562C11.8893 37.044 11.9316 37.4469 12.0899 37.8098C12.2481 38.1727 12.5145 38.4779 12.8527 38.6836C14.9826 40.08 18.8132 38.5587 21.5003 36.8067C21.5676 36.8676 21.6444 36.9285 21.7309 36.9957C19.2776 38.9943 15.4983 40.7398 12.7054 39.2185C11.5588 38.5939 10.9631 37.521 11.104 36.3359C11.3923 34.0299 14.2396 31.9609 18.7267 30.8111C19.5851 30.5901 27.4799 28.7933 27.56 28.7741C27.6685 28.7553 27.7659 28.6966 27.8331 28.6093C27.9002 28.5221 27.9321 28.4128 27.9224 28.3032C27.9128 28.1935 27.8622 28.0915 27.7808 28.0174C27.6995 27.9433 27.5932 27.9024 27.4831 27.9029C23.1209 27.9029 18.3327 27.5218 17.9772 26.4584V26.4361V26.4136C15.8313 15.6938 23.6206 12.6416 35.4293 8.07434C35.5446 8.62203 35.9546 10.5725 36.6304 13.8842C33.7479 12.7953 30.545 13.9611 28.5881 14.6658C28.2134 14.8035 27.8899 14.9187 27.6272 15.0052C27.5269 15.039 27.4427 15.1088 27.3906 15.2011C27.3386 15.2933 27.3225 15.4015 27.3454 15.5048C27.3575 15.5602 27.3805 15.6126 27.4132 15.6588C27.4458 15.7051 27.4874 15.7443 27.5354 15.7741C27.5835 15.804 27.6372 15.8239 27.6931 15.8326C27.749 15.8414 27.8061 15.8389 27.861 15.8251C32.6012 14.6529 35.2115 14.6016 36.8706 15.6458C38.8595 16.8981 39.5994 19.8607 40.5763 24.5848C40.5991 24.6873 40.6419 24.7842 40.7024 24.8699C40.7629 24.9557 40.8397 25.0286 40.9285 25.0845C41.0177 25.1391 41.117 25.1752 41.2205 25.1906C41.324 25.206 41.4295 25.2004 41.5307 25.1741L43.8783 24.5336L45.0346 24.2133C45.1907 24.1732 45.3563 24.1935 45.4982 24.27C45.6401 24.3466 45.7478 24.4739 45.8 24.6264C45.8242 24.7108 45.8299 24.7995 45.8166 24.8863C45.8034 24.9731 45.7715 25.056 45.7231 25.1293V25.1037Z" fill="#A71920"/>
</g>
<defs>
<clipPath id="clip0">
<rect width="62" height="62" fill="white"/>
</clipPath>
</defs>
</svg>
